<?xml version="1.0" standalone="no"?>
<!DOCTYPE svg PUBLIC "-//W3C//DTD SVG 20010904//EN"
 "http://www.w3.org/TR/2001/REC-SVG-20010904/DTD/svg10.dtd">
<svg version="1.0" xmlns="http://www.w3.org/2000/svg"
 width="576.000000pt" height="297.000000pt" viewBox="0 0 576.000000 297.000000"
 preserveAspectRatio="xMidYMid meet">
<metadata>
Created by potrace 1.16, written by Peter Selinger 2001-2019
</metadata>
<g transform="translate(0.000000,297.000000) scale(0.100000,-0.100000)"
fill="#000000" stroke="none">
<path d="M4933 2955 c-37 -16 -37 -14 -23 -50 8 -20 16 -26 30 -22 17 4 30
-10 30 -34 0 -4 -26 -16 -57 -25 -32 -9 -63 -19 -69 -21 -21 -8 -24 39 -3 56
13 11 17 23 13 38 -8 30 -27 35 -71 19 -32 -11 -38 -18 -38 -42 0 -22 6 -29
25 -34 15 -4 26 -14 28 -27 3 -19 -5 -23 -67 -37 -38 -9 -72 -16 -75 -16 -13
0 -5 41 9 46 19 7 20 48 2 62 -10 8 -25 8 -53 1 -50 -14 -58 -22 -50 -53 5
-19 13 -26 31 -26 18 0 25 -5 25 -20 0 -15 -7 -20 -25 -20 -15 0 -29 -8 -36
-22 -17 -34 -50 -68 -81 -84 -24 -12 -265 -77 -988 -264 -202 -53 -477 -125
-865 -227 -312 -83 -307 -82 -339 -49 -32 31 -33 64 -5 176 74 292 -123 434
-412 297 -76 -37 -156 -89 -273 -181 -156 -122 -242 -156 -392 -156 -84 0
-190 23 -399 85 -119 36 -335 46 -435 21 -197 -50 -327 -181 -361 -363 -18
-92 -5 -290 26 -411 97 -377 368 -737 670 -888 182 -91 362 -86 520 14 48 31
49 32 25 39 -14 4 -59 24 -100 44 -286 145 -361 498 -145 687 82 72 211 116
311 106 34 -4 101 -3 148 1 129 10 158 42 218 235 34 108 76 160 143 179 54
15 69 14 187 -10 214 -42 369 -42 581 2 118 24 164 38 547 162 550 178 950
295 1555 457 231 62 281 55 379 -51 55 -59 55 -59 113 -59 32 0 75 3 96 6 35
6 37 8 37 46 0 56 -41 128 -112 196 -60 59 -62 62 -66 120 l-4 60 -62 -29
c-72 -34 -86 -36 -86 -9 0 11 7 20 16 20 11 0 14 8 12 33 -2 26 -8 32 -28 34
-14 2 -40 -4 -57 -12z"/>
<path d="M1575 1460 c-11 -4 -38 -13 -60 -19 -139 -37 -225 -160 -225 -322 0
-172 111 -299 290 -331 78 -13 180 2 251 38 l50 25 -3 142 -3 142 -115 0 -115
0 0 -55 0 -55 48 -3 47 -3 0 -50 c0 -27 -3 -49 -7 -49 -5 -1 -28 -5 -52 -9
-59 -12 -133 8 -171 44 -68 66 -81 212 -27 294 54 82 169 103 269 51 53 -27
78 -20 106 29 12 21 22 41 22 44 0 11 -87 57 -146 77 -61 20 -125 25 -159 10z"/>
<path d="M2010 1456 l-25 -14 3 -229 c4 -200 6 -234 24 -274 41 -98 134 -153
258 -153 123 -1 211 48 257 141 28 58 28 59 31 290 l4 232 -26 7 c-15 3 -51 3
-81 -1 l-55 -6 0 -215 c0 -234 -6 -266 -55 -298 -34 -22 -108 -23 -140 -2 -57
37 -60 52 -63 292 l-4 222 -28 5 c-15 4 -38 8 -51 11 -13 3 -35 -1 -49 -8z"/>
<path d="M2765 1460 c-11 -5 -32 -9 -47 -9 l-28 -1 0 -330 0 -330 80 0 80 0 0
326 c0 300 -1 328 -17 340 -20 15 -39 16 -68 4z"/>
<path d="M3068 1453 l-128 -4 0 -59 0 -60 90 0 90 0 0 -270 0 -270 80 0 80 0
0 270 0 270 93 0 92 0 0 59 0 58 -89 7 c-49 3 -110 5 -135 4 -25 -1 -103 -4
-173 -5z"/>
<path d="M3707 1451 l-39 -6 -124 -320 c-68 -176 -124 -323 -124 -327 0 -11
132 -10 148 1 8 4 24 37 37 72 l23 64 122 0 123 0 21 -56 c32 -85 37 -89 121
-89 l72 0 -79 203 c-43 111 -100 258 -126 326 -56 147 -60 150 -175 132z m86
-274 c20 -62 37 -116 37 -120 0 -4 -36 -7 -80 -7 -44 0 -80 3 -80 7 0 15 75
233 80 233 3 0 22 -51 43 -113z"/>
<path d="M4150 1120 l0 -330 80 0 80 0 0 120 0 120 28 0 c36 0 45 -11 112
-128 29 -51 61 -97 71 -102 18 -10 169 -14 169 -5 0 12 -152 249 -166 260 -13
9 -9 15 23 35 100 66 114 233 25 305 -54 43 -108 54 -269 55 l-153 0 0 -330z
m305 185 c27 -26 34 -80 14 -117 -14 -26 -68 -48 -119 -48 l-40 0 0 95 0 95
60 0 c51 0 65 -4 85 -25z"/>
<path d="M2195 642 c-112 -53 -138 -184 -51 -260 20 -17 69 -41 116 -57 47
-16 96 -40 116 -57 30 -26 34 -36 34 -78 0 -94 -70 -154 -173 -147 -45 2 -67
10 -103 36 -31 22 -50 29 -57 22 -17 -17 -2 -35 53 -65 108 -59 242 -32 296
60 28 48 32 129 9 174 -17 33 -78 67 -168 96 -32 10 -75 32 -95 50 -31 26 -37
38 -37 71 0 77 53 124 139 125 42 1 65 -6 99 -25 24 -15 47 -23 51 -20 31 31
-45 83 -132 89 -42 4 -67 0 -97 -14z"/>
<path d="M2795 646 c-89 -28 -145 -75 -185 -156 -35 -69 -40 -214 -10 -294 29
-75 86 -137 153 -166 101 -45 253 -25 324 42 18 16 20 24 11 35 -9 11 -14 10
-32 -5 -47 -43 -88 -57 -171 -57 -120 0 -189 44 -236 149 -64 146 -12 328 113
390 73 37 167 36 250 -1 73 -33 99 -20 44 22 -67 51 -175 68 -261 41z"/>
<path d="M4102 642 c-29 -11 -70 -33 -90 -49 -101 -81 -138 -275 -79 -415 20
-48 82 -115 129 -139 134 -68 314 -27 391 90 88 132 71 347 -35 448 -75 72
-215 101 -316 65z m213 -51 c52 -23 118 -98 134 -151 7 -23 12 -74 13 -113 0
-140 -63 -239 -173 -271 -65 -20 -102 -20 -161 -2 -64 19 -110 57 -143 118
-24 44 -30 68 -33 139 -4 77 -2 93 23 147 30 66 60 99 120 131 52 28 162 29
220 2z"/>
<path d="M3244 634 c3 -9 6 -153 6 -320 0 -297 0 -304 20 -304 19 0 20 7 20
155 l0 155 200 0 200 0 0 -155 0 -155 25 0 25 0 0 320 0 320 -25 0 -25 0 0
-150 0 -150 -200 0 -200 0 0 150 0 150 -26 0 c-20 0 -25 -4 -20 -16z"/>
<path d="M4827 636 c-80 -29 -154 -112 -178 -201 -6 -22 -9 -80 -7 -130 5
-105 32 -171 94 -225 61 -53 116 -72 206 -72 94 0 167 30 219 89 59 68 74 115
74 233 0 95 -3 111 -28 162 -33 67 -91 121 -155 142 -55 19 -173 20 -225 2z
m231 -45 c87 -45 134 -132 136 -251 1 -95 -17 -158 -61 -210 -54 -62 -104 -84
-193 -84 -57 0 -85 5 -116 21 -91 48 -144 144 -144 264 0 138 77 249 195 280
45 12 141 2 183 -20z"/>
<path d="M5410 330 l0 -320 176 0 c162 0 175 1 172 18 -3 15 -20 17 -156 20
l-152 3 0 299 c0 293 0 300 -20 300 -20 0 -20 -7 -20 -320z"/>
</g>
</svg>
